<svg width="1710" height="826" xmlns="http://www.w3.org/2000/svg" xmlns:xlink="http://www.w3.org/1999/xlink" xml:space="preserve" overflow="hidden"><g transform="translate(6 -458)"><path d="M36.3805 549.517 38.342 544.108 31.2679 537.941 31.2679 534.089 17.8914 522.514 14.3647 517.883-4.49997 517.883-2.93481 515.179 8.85556 510.16 11.7144 510.16 12.9457 511.02 16.9107 511.02 19.0392 510.16 21.0217 508.459 23.4632 507.271 25.1534 507.271 25.1534 510.569 24.9865 512.065 26.5308 512.065 49.7153 514.318 50.6335 513.56 50.6335 510.856 50.6335 509.975 49.4022 508.623 47.4197 507.271 46.5015 505.919 44.2269 505.017 41.9313 505.017 36.4432 505.017 37.6534 503.665 39.6359 502.477 40.8672 501.432 40.7003 499.936 38.5716 499.178 38.5716 497.99 40.5541 497.99 41.6185 497.99 42.8495 494.978 44.2269 493.032 44.9782 491.7 46.8145 490.348 48.7971 488.852 51.8437 487.5 54.8905 487.5 58.5633 487.5 59.4815 489.303 61.0048 489.59 62.5281 489.897 63.9055 489.59 65.4288 489.59 66.9521 491.085 66.9521 492.745 67.8703 493.933 67.8703 494.835 69.0806 495.736 69.999 496.494 71.0631 497.682 72.2943 498.276 73.3587 498.44 74.7358 499.178 74.7358 500.674 74.7358 501.575 75.341 502.333 76.1132 502.927 77.4696 504.116 77.4696 505.611 79.014 506.062 80.6834 506.369 82.9788 506.82 82.9788 508.172 82.9788 511.163 84.6482 512.802 86.0256 514.605 87.695 515.507 89.5314 516.265 91.5137 517.31 92.7242 517.597 94.7275 518.498 97.6072 518.498 105.558 518.498 107.228 516.695 109.669 514.155 113.175 510.856 116.388 507.127 118.83 504.28 119.894 504.28 119.894 505.468 119.894 506.513 121.877 506.82 124.172 506.226 126.447 504.28 128.742 502.784 130.579 502.169 132.707 501.268 133.918 502.477 133.918 503.829 132.248 505.324 132.248 506.369 130.871 508.029 130.12 509.811 130.725 511.614 131.935 513.253 133.312 514.769 133.918 517.002 133.918 517.76 133.918 519.113 133.918 520.895 133.918 522.841 133.918 524.644 135.149 526.898 135.149 528.681 137.277 529.889 138.509 530.484 138.509 532.43 136.985 534.54 135.9 535.728 136.067 537.675 136.985 538.433 139.573 538.72 141.868 537.982 143.392 537.818 145.666 537.818 148.421 537.818 149.485 538.269 151.155 539.621 152.845 540.666 153.45 541.875 154.368 543.206 155.286 544.559 156.664 545.173 157.728 545.911 158.5 546.218 158.5 547.12 158.5 548.451 157.123 549.517 156.497 550.848 156.497 552.057 157.123 553.553 157.123 554.311 158.5 555.643 158.5 557.159 157.874 558.204 156.205 559.085 156.205 559.986 156.059 561.789 157.123 563.448 156.497 565.088 153.763 566.132 152.532 566.89 151.468 566.89 146.126 566.89 145.207 567.935 142.62 569.287 140.637 569.287 139.114 570.619 136.359 572.729 134.231 574.676 133.772 575.577 131.935 575.577 128.742 575.577 126.447 576.765 124.777 578.425 121.877 580.064 118.976 582.01 117.453 583.055 115.762 584.715 115.616 586.661 115.303 588.894 115.157 591.005 114.239 592.5 112.257 592.5 108.605 591.742 105.704 589.96 101.885 587.85 99.4436 585.903 94.5606 582.912 90.9086 580.371 86.9438 577.667 84.7943 576.171 79.4521 573.774 75.654 572.279 72.1482 570.619 68.3295 568.079 64.9696 566.132 60.5456 563.592 56.5808 561.338 54.2852 559.986 52.1568 557.446 50.4665 556.401 46.2094 555.356 43.4548 555.048 39.949 554.311 38.7178 552.651 37.3614 551.012 36.3805 549.517Z" stroke="#FFFFFF" stroke-width="1.14583" stroke-miterlimit="8" fill="#B4DDB8" fill-rule="evenodd"/><path d="M178.816 616.829 171.5 611.78 171.5 604.555 175.168 601.682 178.816 601.682 185.402 601.682 185.402 597.351 189.07 589.408 195.656 589.408 201.513 585.857 201.513 581.568 205.973 581.568 210.787 579.843 216.039 576.826 219.562 573.809 223.501 569.478 228.336 567.754 235.777 566.03 241.925 566.03 250.262 566.03 255.077 563.013 259.454 563.013 263.414 567.323 266.915 573.378 272.188 577.688 275.69 577.257 281.379 575.533 283.589 571.654 280.066 566.892 277.44 563.013 277.44 558.251 280.504 558.251 279.191 554.372 277.878 550.472 298.053 552.648 311.642 553.941 324.793 555.665 339.716 556.958 351.992 557.82 355.931 557.82 358.995 557.82 361.204 544.438 363.831 533.252 363.831 529.763 369.958 537.521 376.107 528.018 377.857 522.846 382.693 521.122 386.194 519.131 386.194 514.328 388.82 514.328 394.969 510.325 402.409 508.601 410.309 505.564 412.935 505.564 419.958 494.768 429.608 483.109 434.423 483.109 441.009 483.109 446.699 483.109 452.409 483.109 455.473 477.506 458.996 470.158 461.184 464.103 464.248 458.5 472.585 458.5 481.359 458.5 489.675 458.5 494.51 458.5 494.51 461.948 494.51 464.555 498.012 465.848 501.076 465.848 504.16 464.986 506.349 468.434 506.349 470.589 508.099 474.037 508.099 477.075 506.349 480.667 503.285 480.667 501.513 483.971 504.16 485.716 508.099 488.733 511.601 490.457 515.123 493.475 519.5 498.667 515.561 501.254 512.914 504.702 513.372 508.17 515.123 514.328 515.998 519.131 517.312 524.57 517.749 527.587 514.686 531.056 511.601 533.252 511.601 537.665 511.163 544.438 510.725 552.648 510.288 562.151 510.725 567.323 509.85 572.947 502.847 575.102 496.261 577.688 487.049 581.137 481.359 580.274 476.524 576.395 470.396 570.771 466.874 565.168 466.436 553.51 461.622 548.317 460.308 543.145 457.224 537.665 456.349 533.252 453.285 527.587 452.409 519.131 451.534 514.328 450.659 509.894 447.136 510.756 447.136 514.328 445.823 519.131 443.197 523.708 441.446 528.901 440.571 533.252 440.571 537.665 440.133 541.421 438.82 543.576 431.797 546.162 425.231 548.317 421.709 551.786 419.958 556.958 414.685 562.582 409.871 566.03 404.181 569.478 405.494 573.378 408.12 578.55 407.245 582.861 403.743 585.857 398.47 587.622 393.656 588.484 387.507 591.071 379.608 597.125 378.295 602.729 378.733 610.077 381.797 616.829 380.046 618.718 376.544 618.718 372.605 618.718 371.73 622.166 371.73 627.79 366.457 631.238 359.454 635.117 355.494 637.293 355.494 641.603 351.117 643.327 345.49 646.775 339.279 651.106 330.504 656.709 327.003 660.178 325.231 665.35 319.104 665.35 315.602 665.35 310.329 665.35 305.077 668.367 297.615 673.129 291.029 676.577 284.902 680.457 277.44 680.457 277.003 684.356 277.003 690.822 277.878 694.721 279.191 700.325 277.44 702.5 271.313 702.5 267.79 702.5 263.851 702.5 260.787 699.463 257.703 697.308 252.451 700.325 248.928 702.5 245.865 696.014 243.676 692.566 243.676 688.667 239.299 686.08 223.939 683.925 222.626 674.422 217.373 671.405 209.037 669.229 202.45 666.643 197.198 661.471 193.238 656.278 189.299 648.951 186.235 645.051 187.549 635.979 184.485 633.393 180.525 629.514 176.585 626.476 179.212 621.735 178.816 616.829Z" stroke="#FFFFFF" stroke-width="1.14583" stroke-miterlimit="8" fill="#B4DDB8" fill-rule="evenodd"/><path d="M131.664 684.341 134.742 689.078 137.821 692.974 142.68 694.697 147.958 694.697 150.178 691.682 152.817 686.924 152.817 684.341 151.057 679.152 149.717 676.138 152.817 676.138 157.99 674.415 157.99 670.97 155.896 664.49 160.294 661.475 163.394 658.03 163.394 655.425 163.394 651.119 165.593 648.535 171.059 648.535 173.53 648.535 179.688 645.5 185.866 652.842 191.144 660.614 194.684 665.782 194.684 668.796 201.721 670.109 207.019 672.693 213.617 674.846 216.696 675.276 216.696 677.43 216.696 682.187 218.915 685.632 221.994 686.924 227.272 689.078 233.89 689.508 238.749 689.939 241.388 691.682 241.388 694.697 241.388 702.038 243.148 705.053 243.148 708.067 247.546 708.067 250.645 705.483 254.604 703.761 258.562 702.038 260.322 705.914 264.301 708.067 264.301 711.082 261.662 714.548 261.662 717.562 261.222 722.299 259.882 727.487 258.562 730.933 257.243 735.26 256.803 741.289 257.243 748.2 255.923 754.659 251.525 757.695 249.745 761.57 249.326 767.189 254.604 767.189 262.102 767.189 264.301 770.204 266.5 775.372 266.5 779.268 264.741 783.574 261.222 787.02 255.484 788.763 250.206 791.347 247.546 793.5 244.907 789.624 241.828 784.005 237.409 777.976 235.21 773.218 232.571 769.773 229.052 769.343 224.633 771.065 221.115 770.635 211.857 761.14 204.799 753.367 203.48 749.061 199.082 749.922 196.003 752.937 190.704 755.541 185.426 758.986 183.646 762.001 182.327 766.308 182.327 769.773 182.327 772.357 177.489 771.496 171.059 770.635 166.472 768.481 162.074 770.635 160.734 774.51 152.377 766.759 146.198 760.709 142.68 758.556 138.261 757.695 131.664 756.833 125.925 756.833 123.286 758.556 119.328 756.833 119.328 752.076 119.328 747.769 116.793 742.581 119.767 739.136 124.605 737.413 128.564 734.398 133.423 728.349 135.182 723.181 136.941 719.51 134.302 715.84 130.344 712.374 126.805 708.067 120.647 702.038 114.469 702.038 112.5 698.142 116.793 694.266 122.406 690.821 126.805 686.924 131.664 684.341Z" stroke="#FFFFFF" stroke-width="1.14583" stroke-miterlimit="8" fill="#FFE699" fill-rule="evenodd"/><path d="M282.351 696.216 282.351 691.049 282.351 684.139 287.6 684.139 292.849 679.833 305.138 673.784 310.825 669.027 320.906 669.027 325.28 670.77 328.8 666.013 328.8 661.276 334.924 658.693 340.631 654.366 351.15 647.887 358.586 645.734 358.586 639.275 364.294 636.261 371.75 631.073 375.25 627.629 375.25 622.441 379.624 620.718 384.456 617.704 384.456 614.239 382.269 609.072 384.456 602.592 386.206 597.856 390.143 593.96 394.538 591.807 400.224 591.807 405.494 591.807 407.244 595.272 409.431 597.856 413.805 597.425 418.2 595.703 425.199 593.96 429.594 591.807 421.699 585.738 425.657 578.008 426.094 571.098 434.843 573.271 434.843 577.577 432.218 585.738 432.218 588.793 433.093 596.995 434.843 603.023 439.675 606.058 445.362 607.78 451.069 608.211 458.067 605.627 460.713 597.856 460.713 590.946 460.713 587.932 469.919 588.793 472.544 592.668 478.668 593.099 484.812 593.099 493.581 593.55 499.268 593.55 501.476 602.162 501.476 607.78 501.476 613.378 505.413 614.239 509.349 610.794 514.619 606.488 521.181 603.905 524.263 598.717 522.055 591.377 529.512 587.501 538.719 583.175 546.613 580.386 546.613 573.271 546.613 568.083 546.613 565.5 549.238 565.5 549.238 568.945 549.238 572.84 549.238 577.577 554.487 580.386 560.631 582.744 558.882 588.793 557.132 593.55 555.362 598.287 545.718 594.411 537.844 592.238 532.137 593.55 527.325 596.564 529.95 600.44 534.345 604.315 533.449 611.225 530.825 616.413 529.512 620.718 537.407 621.58 545.718 622.01 552.3 620.288 557.132 616.843 562.818 614.239 566.318 615.121 571.588 616.413 576.837 617.704 582.544 619.427 589.543 619.427 598.312 619.427 600.957 621.58 600.957 625.906 603.144 630.868 606.206 630.868 609.705 628.92 611.913 626.316 611.913 623.733 618.474 624.163 623.307 624.163 628.556 624.163 633.805 624.163 631.181 627.198 627.244 628.49 621.099 628.92 616.725 630.868 612.788 630.868 609.268 633.657 609.705 637.122 612.351 639.275 614.975 641.428 618.474 645.734 623.745 647.477 627.681 645.734 632.056 645.734 636.013 644.011 639.512 645.734 642.137 650.06 646.532 651.783 650.906 652.644 657.488 653.075 661.425 653.075 665.362 654.366 665.362 658.693 661.862 659.984 657.488 659.984 657.488 662.999 659.238 666.874 663.174 668.617 667.132 667.735 669.757 666.013 673.256 666.443 677.193 666.874 679.838 665.152 683.775 662.999 683.775 659.123 683.775 655.227 685.524 652.644 687.712 649.63 685.087 645.734 687.712 645.734 690.357 647.477 693.419 647.477 696.043 645.734 698.23 648.338 701.313 651.783 704.812 655.658 707.875 660.415 713.144 664.291 719.268 669.478 723.226 674.214 726.288 685 729.787 696.216 732.432 707.001 735.932 712.189 742.93 708.724 749.512 705.279 752.574 702.265 747.325 700.091 746.45 693.202 748.2 685 747.763 677.659 739.431 671.631 741.618 669.478 747.763 669.909 752.574 669.909 752.574 665.582 755.657 660.846 759.156 658.262 759.156 653.936 759.156 648.768 753.012 649.199 753.449 645.734 755.22 642.289 760.906 640.997 766.176 640.997 773.612 638.844 778.444 637.122 782.381 632.365 784.568 628.059 787.651 624.163 791.588 620.718 794.65 616.413 796.837 613.808 799.045 617.274 802.981 619.427 805.168 620.718 808.23 621.149 813.5 622.441 813.5 626.767 813.5 634.087 811.313 638.844 806.043 642.72 800.357 645.734 799.045 650.06 799.482 654.797 800.357 661.707 799.045 667.735 795.962 672.923 792.463 677.229 788.526 685.43 783.256 691.91 778.444 699.661 775.362 707.001 775.82 712.189 778.444 717.787 780.631 722.092 783.256 727.28 778.882 727.28 773.612 732.017 772.3 736.774 768.8 740.218 764.863 744.094 760.031 747.128 755.657 748.851 750.825 748.851 747.325 754.448 743.389 757.914 738.993 757.914 733.745 755.31 728.475 750.573 726.725 746.267 722.351 746.267 721.018 748.42 718.831 749.712 720.143 752.726 723.663 757.914 717.081 760.928 707 763.081 699.126 766.977 686.399 765.234 678.963 763.511 671.944 769.13 668.007 771.713 654.864 769.991 648.719 768.699 642.137 769.56 633.388 771.713 619.787 777.762 606.643 782.499 593.938 784.221 588.668 784.221 578.607 787.235 573.337 787.235 568.526 791.992 561.506 798.882 557.132 801.486 554.049 804.5 550.113 802.777 546.176 800.625 543.093 798.02 537.844 793.715 532.574 788.978 528.637 787.666 524.701 790.27 518.994 791.131 513.745 789.409 506.288 787.235 500.58 785.082 494.456 780.776 489.624 777.762 488.749 770.421 486.125 766.095 478.668 764.373 472.981 764.373 467.274 766.977 466.837 771.713 466.399 776.019 462.025 774.727 455.006 772.574 443.612 771.713 436.176 770.852 428.282 770.421 425.199 773.005 421.699 775.158 419.95 770.421 419.512 763.081 421.262 759.206 426.532 756.191 431.344 751.004 437.051 747.128 438.363 736.343 437.051 726.419 431.344 723.405 424.782 726.849 419.95 731.586 414.242 730.294 408.556 728.572 404.182 728.572 402.411 731.155 405.494 736.343 407.681 740.649 403.307 744.094 397.6 747.559 395.413 753.157 394.101 762.65 393.663 765.664 387.518 769.13 378.312 773.436 370.876 768.699 362.981 760.067 355.524 755.31 352.9 753.157 348.067 757.053 338.007 757.483 337.111 751.434 333.612 746.698 327.488 744.094 320.031 746.698 312.574 752.296 307.763 756.191 304.242 757.914 297.681 754.448 292.849 747.128 288.475 735.051 282.351 731.586 273.144 729.864 263.5 729.433 263.5 724.266 266.125 719.735 263.5 716.495 266.125 713.05 268.312 711.307 269.187 707.862 266.125 705.709 273.144 705.709 280.143 706.14 282.351 706.14 282.351 702.265 282.351 696.216Z" stroke="#FFFFFF" stroke-width="1.14583" stroke-miterlimit="8" fill="#FF6D6D" fill-rule="evenodd"/><path d="M263.334 733.994 270.793 736.138 276.481 736.138 282.19 736.138 285.69 739.998 287.44 745.593 290.066 752.025 290.066 756.334 294.024 758.478 298.837 762.338 304.546 764.482 308.922 761.48 315.068 756.334 321.194 752.883 325.569 749.228 330.84 749.228 333.466 753.312 333.466 757.192 333.466 762.338 337.862 762.338 348.821 761.909 353.634 758.478 357.572 764.482 363.718 768.362 369.844 773.936 374.24 778.245 380.803 778.245 386.95 774.794 393.534 771.792 398.784 767.504 400.972 758.049 400.972 749.881 407.118 747.308 411.931 743 411.931 739.998 411.931 736.996 408.431 733.994 410.056 732.871 415.14 732.871 418.515 734.79 422.766 732.871 426.433 729.808 431.517 726.5 435.184 726.5 435.184 732.299 435.184 739.222 433.496 744.204 429.537 747.798 422.474 754.169 416.828 758.029 415.994 763.563 417.682 769.117 419.078 774.079 419.369 778.245 423.599 779.899 426.703 777.142 429.246 774.651 432.933 773.262 440.267 772.711 449.289 774.079 455.79 776.019 461.999 777.959 466.791 782.942 470.479 787.638 473.583 791.518 473.583 793.703 468.499 796.215 461.728 800.646 457.206 803.137 457.206 806.731 458.332 809.774 458.04 813.389 454.935 815.308 452.123 817.534 450.998 820.291 450.435 823.619 449.289 826.111 444.205 828.316 437.996 830.807 433.767 832.461 432.642 834.953 432.079 838.832 432.933 848.512 433.496 860.131 438.559 864.297 444.789 869.279 453.81 877.019 461.999 883.941 469.624 890.026 476.125 894.723 479.5 897.5 469.333 897.5 462.29 897.5 459.186 895.826 454.935 895.56 450.706 895.826 447.331 895.826 446.747 887.249 444.789 886.146 441.955 886.698 436.309 887.249 432.079 888.086 427.558 885.881 420.495 881.164 410.056 874.527 402.43 869.831 399.889 867.891 398.763 863.173 397.909 858.191 395.096 856.823 388.033 856.823 379.574 856.271 373.636 855.985 367.427 853.494 359.802 850.737 350.488 847.96 341.737 844.366 336.945 845.469 334.111 847.695 328.757 845.469 322.527 843.263 316.318 840.772 314.068 837.73 315.485 834.953 316.61 832.461 308.422 831.644 302.775 831.644 297.129 830.807 293.733 823.619 286.961 812 283.294 805.915 283.586 797.338 284.149 789.864 275.96 785.699 271.147 782.656 268.605 780.736 269.751 773.262 267.772 765.789 265.959 763.297 259.292 763.011 254.5 762.746 257.333 758.029 260.146 752.781 261.834 748.35 261.563 741.427 261.563 735.628 263.334 733.994Z" stroke="#FFFFFF" stroke-width="1.14583" stroke-miterlimit="8" fill="#FF6D6D" fill-rule="evenodd"/><path d="M229.151 773.5 233.907 781.012 239.039 788.891 245.256 797.484 249.637 799.26 252.578 795.688 256.604 793.912 260.985 791.749 266.242 790.32 266.242 786.38 272.688 788.891 277.445 791.402 280.011 793.912 280.011 799.26 278.175 804.649 281.471 812.202 287.312 822.898 293.174 832.92 293.174 836.125 302.687 836.125 310.009 836.125 310.009 843.29 316.226 844.719 321.712 846.515 326.823 849.373 332.686 851.169 336.691 851.169 338.902 849.026 343.659 851.169 347.685 851.169 353.171 853.312 360.473 855.823 369.61 859.048 376.578 860.824 389.011 860.824 396.333 860.824 396.333 869.785 400.339 872.194 406.931 877.644 413.148 881.951 421.2 888.034 427.041 891.259 428.877 893.402 435.824 891.259 441.31 890.891 443.146 894.831 443.146 899.485 446.797 899.485 457.04 899.485 458.5 906.65 458.5 910.222 455.934 914.509 450.093 920.244 443.876 925.98 438.39 931.349 436.199 933.839 436.554 939.922 436.199 944.943 429.253 949.944 422.285 954.966 413.878 960.334 407.286 964.274 401.444 968.928 395.582 972.5 387.175 967.846 380.228 963.559 375.848 961.049 375.472 949.944 375.097 941.718 371.446 938.146 367.42 937.432 363.769 935.635 358.658 929.185 354.986 922.755 349.875 914.162 345.327 906.65 339.632 897.668 334.5 897.668 331.204 895.199 327.554 894.117 322.067 895.545 317.686 895.199 310.739 895.545 305.607 895.199 299.015 894.117 295.365 893.402 292.444 884.808 290.984 878.726 288.418 872.99 279.635 867.621 273.418 864.417 266.242 858.334 256.959 855.823 249.282 853.68 241.605 851.169 240.499 845.433 240.145 841.494 245.631 841.494 259.149 841.147 260.985 837.574 260.985 832.206 254.768 830.41 244.901 827.552 237.579 825.756 236.849 808.568 236.118 800.71 232.092 796.403 231.717 787.83 229.151 782.461 225.5 776.358 229.151 773.5Z" stroke="#FFFFFF" stroke-width="1.14583" stroke-miterlimit="8" fill="#B4DDB8" fill-rule="evenodd"/><path d="M219.519 864.886 222.823 859.848 225.752 853.396 228.325 846.556 232.362 843.689 238.218 845.839 238.218 849.792 240.791 854.277 245.937 856.981 252.17 858.783 260.955 860.565 268.297 864.886 277.48 872.689 284.8 877.441 288.838 883.544 288.838 890.733 291.766 896.119 294.715 898.249 296.535 900.789 296.535 904.025 296.535 907.261 299.463 909.043 299.463 912.647 299.463 916.948 303.5 920.901 303.5 924.137 300.216 925.571 293.962 925.571 289.946 925.571 283.692 925.571 280.031 924.137 275.994 921.986 271.225 923.051 269.029 925.571 263.967 923.768 259.135 921.986 256.939 919.467 255.098 923.051 253.258 927.373 249.597 932.759 245.937 932.759 240.791 931.326 241.9 927.004 243.364 922.703 244.096 917.317 243.72 911.931 241.168 907.261 238.95 907.261 236.022 911.931 234.181 916.231 229.412 917.665 223.932 917.317 219.519 918.382 215.482 920.532 212.553 922.335 212.553 925.919 212.553 928.807 205.944 929.155 199.355 929.523 193.477 932.759 191.281 937.429 191.281 943.88 194.941 946.031 191.281 948.919 189.712 951.417 186.888 953.588 183.583 957.889 185.78 962.19 189.712 963.993 194.941 963.993 194.941 967.945 194.941 976.199 193.854 984.105 192.389 992.359 187.976 989.122 183.583 988.406 179.546 989.491 181.387 993.792 183.583 997.745 185.048 999.896 183.207 1003.5 178.082 1003.5 171.284 1003.5 165.971 1000.63 162.311 1000.63 156.078 998.462 153.881 995.594 148.004 992.01 143.967 988.057 146.895 983.736 149.844 978.349 150.2 975.851 153.881 975.851 159.382 976.199 165.971 976.568 168.9 976.568 169.276 971.181 171.284 966.143 171.284 962.19 171.284 958.975 175.509 956.087 179.902 956.087 183.207 953.588 180.278 950.352 173.313 949.984 169.632 949.984 169.632 942.795 171.284 938.146 174.777 934.541 173.313 931.674 171.284 926.287 171.284 919.816 168.168 918.034 165.239 915.515 164.507 911.214 159.738 909.759 155.701 910.128 153.505 911.931 148.004 911.931 140.662 912.996 137.378 914.429 132.964 912.996 132.964 910.128 134.805 907.261 135.537 904.373 136.269 901.158 136.269 898.249 134.805 893.969 131.5 891.45 133.696 889.299 134.073 884.281 137.001 881.046 143.967 879.96 149.844 879.96 155.701 879.612 158.274 877.093 154.969 873.488 151.664 870.621 156.078 867.385 161.202 864.886 164.884 862.367 164.884 855.895 165.239 848.01 171.284 843.689 177.35 840.453 178.082 836.5 179.902 836.5 183.207 838.671 187.976 838.671 189.712 841.538 189.712 845.122 194.586 845.839 198.623 846.208 199.71 850.161 200.087 856.264 201.551 859.5 203.015 864.169 207.429 865.951 213.286 866.32 219.519 864.886Z" stroke="#FFFFFF" stroke-width="1.14583" stroke-miterlimit="8" fill="#FFE699" fill-rule="evenodd"/><path d="M125.494 802.843 128.414 797.104 130.249 792.1 125.494 788.506 118.55 784.932 114.879 783.155 114.879 777.783 114.879 773.474 110.5 770.247 113.065 767.388 120.364 763.446 125.848 761.301 131.708 761.301 137.568 761.301 142.678 761.301 146.702 765.59 151.457 769.9 156.942 774.904 160.591 778.13 164.616 777.783 166.806 774.904 170.101 773.474 174.126 773.474 178.505 775.271 182.905 775.271 186.179 774.904 187.66 770.247 187.66 764.875 189.745 761.301 194.604 757.359 199.714 754.5 202.278 754.5 206.303 759.157 211.058 765.243 217.46 772.044 222.382 778.662 227.512 786.361 227.512 792.448 227.512 798.187 231.537 802.843 234.081 807.5 234.081 812.198 234.081 819.673 234.081 824.677 234.081 827.904 241.046 830.416 248.345 832.56 254.935 833.99 257.5 836.134 249.45 837.932 243.59 837.932 237.376 837.932 232.267 837.932 225.677 839.014 223.862 844.386 221.297 851.187 217.46 858.355 215.437 860.5 209.953 860.5 205.928 857.641 203.738 850.819 202.278 845.448 199.714 841.159 194.229 840.791 189.745 832.928 185.825 830.416 183.99 831.498 180.715 832.56 177.42 830.416 174.855 828.618 172.666 830.416 172.666 836.134 169.725 837.584 164.616 841.159 154.377 841.506 141.218 840.444 135.003 839.014 131.708 827.189 131.708 821.47 131.708 814.669 126.599 809.277 125.118 804.641 125.494 802.843Z" stroke="#FFFFFF" stroke-width="1.14583" stroke-miterlimit="8" fill="#FFE699" fill-rule="evenodd"/><path d="M11.4998 898.009 14.4001 892.64 14.4001 889.053 12.9501 883.663 11.4998 877.905 12.9501 873.232 12.9501 870.015 11.4998 865.342 11.4998 860.669 16.9482 860.669 16.9482 863.19 19.8484 867.125 19.8484 869.646 23.8465 869.646 25.6695 867.494 30.02 867.125 32.5679 868.928 35.4681 870.015 40.1913 868.928 43.8167 869.297 46.0127 872.433 48.9129 873.232 51.8131 872.433 51.8131 868.928 49.9901 860.669 49.265 856.345 51.8131 854.911 54.7133 856.714 56.5363 860.669 60.1615 862.821 63.4347 864.973 68.1579 866.059 72.5081 867.125 77.2314 867.842 79.4274 864.973 79.4274 860.669 79.4274 857.8 76.1542 854.911 72.8811 852.411 73.979 849.521 79.4274 849.521 84.1506 849.521 87.776 849.521 91.4011 852.042 91.4011 855.997 92.8513 858.518 97.2224 860.669 100.848 862.821 104.473 863.19 107.746 860.669 112.842 855.997 116.467 851.324 120.093 849.521 120.093 844.5 128.814 844.5 137.908 844.5 144.807 844.5 154.253 844.5 159.702 844.5 159.702 848.087 159.702 852.759 159.702 859.235 152.43 862.821 147.707 864.625 146.257 868.211 145.884 872.433 148.805 873.232 149.53 875.036 144.434 875.036 140.084 875.036 133.185 877.905 129.187 880.425 128.089 884.032 127.737 886.533 125.189 887.619 125.914 891.574 127.737 894.812 131.362 898.009 131.362 900.919 129.539 904.874 127.364 907.026 126.287 909.895 127.737 913.482 132.812 919.773 136.81 919.773 141.161 918.154 144.082 916.719 148.805 917.088 152.43 917.088 152.782 919.773 153.528 922.827 157.154 922.827 157.506 919.773 157.506 916.002 159.702 913.482 161.877 913.482 161.877 916.719 160.426 919.773 161.877 922.827 166.227 922.827 168.05 926.065 168.05 928.216 169.5 932.541 166.6 936.496 164.425 940.431 164.425 946.906 164.777 951.579 166.952 955.883 166.227 960.924 165.15 966.314 165.15 973.138 158.604 973.138 152.057 971.335 147.707 973.138 145.532 976.725 143.709 980.332 141.907 983.918 139.358 987.156 139.358 990.374 141.161 992.894 144.807 995.067 148.08 997.218 150.255 999.719 146.982 1003.33 139.711 1005.11 134.635 1006.91 128.462 1006.91 121.563 1006.91 120.466 1010.5 120.093 1016.97 120.093 1021.65 119.016 1025.95 115.39 1029.56 105.944 1037.1 100.495 1043.55 98.6724 1049.31 97.2224 1056.51 97.2224 1067.29 94.6743 1073.74 92.1262 1076.26 87.403 1076.26 81.2297 1076.26 77.9565 1076.26 74.7041 1079.5 72.8811 1076.26 70.333 1073.02 71.0582 1059.38 68.5307 1053.64 66.3349 1046.44 63.4347 1038.53 65.9828 1034.95 68.5307 1032.08 68.5307 1027.75 67.0807 1022.73 64.1598 1015.89 58.3593 1011.24 51.8131 1006.19 48.1878 1003.33 46.0127 1000.8 46.0127 996.501 47.4627 991.46 43.4645 985.352 44.1897 978.897 44.9146 973.138 38.7413 967.031 32.1951 959.838 27.8446 956.252 26.0216 953.014 24.2195 946.538 23.1214 941.517 20.9463 936.496 15.8503 934.692 13.3228 929.651 15.1252 923.913 15.1252 919.773 15.8503 914.568 15.1252 910.981 15.8503 907.026 11.4998 901.985 11.4998 898.009Z" stroke="#FFFFFF" stroke-width="1.14583" stroke-miterlimit="8" fill="#B4DDB8" fill-rule="evenodd"/><path d="M437.5 858.253 437.5 844.603 437.5 836.323 446.273 832.388 453.942 828.781 458.319 825.564 456.131 820.891 460.152 818.37 464.529 815.132 461.986 808.307 464.529 804.721 474.407 798.593 479.846 794.658 477.324 788.53 472.948 782.074 471.114 778.487 473.302 770.576 476.97 767.707 482.805 767.707 486.097 770.208 486.097 774.88 486.097 779.553 490.849 783.16 495.225 786.029 501.435 789.616 507.291 791.42 512.397 792.485 516.794 793.572 523.004 794.289 529.214 793.572 531.402 792.854 533.965 795.375 537.258 798.244 540.905 802.548 545.281 804.721 551.866 806.504 555.888 806.872 560.994 804.721 564.661 801.482 570.872 797.158 575.977 792.485 580.354 789.616 586.209 789.616 596.087 787.464 605.944 786.378 615.072 784.226 624.95 780.27 639.204 774.88 646.873 773.446 651.624 773.446 660.751 773.446 666.962 774.88 672.817 773.446 677.194 770.208 680.486 767.707 686.321 769.49 691.802 769.859 698.012 770.208 701.305 770.576 708.619 767.707 716.663 765.186 724.332 761.948 731.647 759.079 735.648 759.079 738.94 762.666 744.067 767.707 747.714 771.294 749.173 773.446 753.57 773.446 753.57 768.773 753.57 765.904 759.78 765.186 766.719 765.535 770.366 762.666 773.284 761.231 773.284 757.275 773.284 753.32 779.869 753.32 784.974 750.082 789.726 743.626 789.726 737.518 789.726 731.042 791.56 726.492 795.957 723.5 803.251 723.5 812.399 723.5 815.317 723.5 813.9 729.607 812.399 738.584 811.294 746.495 811.294 752.972 812.399 759.079 815.317 762.666 820.797 765.535 829.195 769.142 836.51 773.446 844.908 777.77 852.952 781.705 857.704 790.887 860.246 797.527 856.974 800.396 854.765 804.721 858.058 807.59 860.246 810.459 860.246 814.415 857.704 818.001 858.433 821.239 862.08 825.912 864.997 829.15 864.997 834.171 862.455 838.127 861.726 842.451 864.997 845.321 869.394 846.386 874.5 849.993 874.5 864.36 867.561 866.881 862.809 869.75 861.351 873.337 861.726 879.813 864.268 884.138 865.372 888.79 866.477 891.311 858.787 898.115 853.307 904.243 846.742 911.805 844.908 916.478 844.908 919.696 850.389 921.13 855.14 922.934 857.704 926.172 857.704 929.041 853.682 932.997 848.201 935.149 841.991 936.604 837.969 939.822 835.406 935.518 832.113 931.214 825.174 931.562 820.068 931.562 816.4 936.235 812.399 939.822 806.918 935.866 801.438 931.562 797.416 928.324 789.372 929.041 784.62 930.476 780.244 928.693 778.41 923.651 764.531 918.261 754.653 913.588 749.548 912.523 746.984 917.913 745.526 923.303 742.963 927.607 737.482 930.476 735.294 934.432 734.564 938.387 733.46 941.625 729.813 943.429 725.062 943.429 721.04 944.863 718.476 944.863 718.122 949.167 717.393 952.754 712.641 954.926 698.012 958.513 688.885 961.751 685.238 961.751 677.194 956.361 669.15 958.144 659.647 955.644 656 953.492 656 949.885 658.918 945.581 657.834 940.908 651.624 938.756 646.873 939.104 643.205 940.19 642.121 944.863 639.558 950.253 637.37 956.361 635.536 959.947 631.514 963.186 628.597 963.186 628.951 968.207 631.514 971.096 635.536 971.096 638.828 971.096 640.287 973.249 640.287 977.204 639.933 980.073 636.995 982.225 630.43 984.029 624.22 986.181 621.657 987.615 620.552 991.94 620.927 998.764 623.116 1002.72 624.574 1005.22 618.739 1008.83 612.884 1013.5 607.028 1010.98 594.983 1002 591.336 999.482 587.668 995.178 588.043 989.05 582.187 986.181 578.165 982.943 578.165 977.204 573.789 971.445 565.391 962.817 557.347 957.078 558.806 951.688 555.513 950.602 552.971 949.885 555.513 944.863 556.972 939.822 556.617 936.604 548.949 937.67 541.634 938.756 538.758 936.604 529.568 930.127 523.004 926.172 516.794 929.041 512.042 931.214 507.645 925.455 504.728 921.13 498.143 921.13 493.391 920.782 493.391 912.871 484.639 907.133 479.846 908.567 473.677 910.35 470.739 910.719 463.445 903.526 479.846 903.895 487.181 904.612 489.015 902.091 486.452 898.115 475.865 889.528 463.07 878.01 447.732 866.881 437.5 858.253Z" stroke="#FFFFFF" stroke-width="1.14583" stroke-miterlimit="8" fill="#FFE699" fill-rule="evenodd"/><path d="M609.5 1037.15 614.241 1032.82 617.152 1028.52 617.152 1022.76 617.152 1018.09 618.608 1013.07 626.634 1009.11 632.457 1006.25 625.906 998.336 625.906 992.578 626.988 987.906 641.211 984.32 646.68 981.452 642.313 968.87 641.585 965.633 635.742 965.633 638.653 962.047 641.585 958.092 642.667 954.506 646.68 949.834 648.863 943.011 652.876 943.011 652.876 945.511 650.693 950.183 648.863 954.506 650.693 956.289 656.162 957.375 662.733 960.612 668.929 962.395 678.412 962.047 682.404 963.85 686.064 965.284 692.614 965.633 698.457 963.481 707.565 960.612 716.694 957.723 721.06 957.006 723.618 950.552 723.618 947.314 729.44 946.597 735.637 945.88 739.297 943.011 741.48 933.667 745.493 930.43 750.588 926.844 750.588 921.803 753.146 917.5 760.444 920.717 766.994 922.889 769.552 924.672 774.668 925.758 774.668 928.278 774.668 931.864 781.218 933.298 790.7 934.015 794.713 933.298 797.624 932.95 799.808 935.45 804.549 939.056 809.664 943.359 814.031 944.445 819.874 939.056 824.968 934.384 831.893 934.733 831.893 940.122 836.634 944.794 840.647 947.662 837.736 953.42 833.723 960.961 830.812 964.916 831.893 968.87 840.647 969.587 855.598 970.674 866.182 971.022 866.182 977.312 869.821 979.3 871.277 982.517 874.188 988.275 874.188 992.23 877.099 992.578 881.113 991.144 883.67 989.709 885.5 991.861 885.5 994.012 880.031 994.75 876.018 996.902 874.188 998.684 872.379 1002.64 871.277 1007.31 871.277 1010.55 872.733 1014.85 878.929 1019.89 884.044 1023.48 885.5 1027.06 880.385 1028.52 877.848 1032.45 876.018 1035.34 872.379 1039.65 872.005 1043.97 874.188 1048.27 870.903 1048.27 865.08 1048.27 860.713 1055.46 855.972 1064.44 853.415 1072.7 852.687 1079.89 852.313 1088.15 851.959 1097.49 851.231 1107.55 850.129 1117.98 848.674 1127.67 850.504 1131.26 853.04 1137.02 853.04 1141.32 852.313 1148.51 850.504 1152.82 844.66 1157.86 839.566 1162.88 838.464 1167.2 837.362 1172.94 836.281 1179.41 839.566 1181.93 844.66 1184.08 847.572 1184.08 851.585 1182.28 855.972 1184.08 855.598 1190.19 855.598 1195.21 857.054 1199.53 858.884 1203.12 862.169 1204.55 857.781 1207.08 857.428 1210.31 857.781 1214.27 858.509 1217.85 858.884 1220.72 858.884 1224.68 855.598 1227.91 850.857 1227.91 844.66 1227.91 838.464 1227.91 833.723 1227.91 830.812 1231.5 826.798 1231.5 822.057 1231.5 818.772 1231.5 817.316 1225.39 814.405 1220.37 813.303 1215.7 812.949 1211.75 807.834 1212.1 801.284 1214.27 795.066 1216.77 788.87 1214.98 788.516 1209.94 788.142 1205.64 786.333 1202.77 782.673 1200.25 778.306 1196.3 777.204 1192.71 776.851 1188.76 773.919 1182.65 768.824 1174.37 758.261 1175.11 751.316 1175.11 747.49 1172.94 742.208 1166.11 737.841 1160.01 731.27 1155.34 724.346 1155.7 719.23 1156.05 717.421 1160.01 714.51 1163.25 709.748 1162.88 709.395 1150.66 707.211 1139.17 703.552 1121.2 701.015 1108.27 701.015 1100.73 693.342 1087.43 690.805 1082.04 684.608 1076.3 689.349 1074.5 694.09 1071.26 697.002 1066.96 693.342 1064.07 686.417 1064.44 676.582 1065.87 671.113 1065.53 666.372 1065.87 662.733 1069.11 657.618 1069.46 653.979 1068.02 650.319 1068.02 647.054 1070.2 641.211 1067.68 637.198 1067.68 634.286 1069.11 631.729 1066.96 636.47 1064.81 641.585 1062.64 643.394 1060.14 638.653 1056.18 634.286 1052.23 630.273 1050.42 626.26 1051.86 625.532 1045.75 621.519 1043.23 614.594 1041.8 612.058 1040.36 609.5 1037.15Z" stroke="#FFFFFF" stroke-width="1.14583" stroke-miterlimit="8" fill="#FF6D6D" fill-rule="evenodd"/><path d="M836.5 964.229 841.256 957.758 844.907 951.656 844.907 945.185 842.341 942.319 849.288 939.452 856.986 935.5 861.367 935.5 869.774 937.302 879.286 938.367 888.799 939.452 897.206 940.885 906.364 940.517 917.338 939.083 921.364 940.517 923.909 944.837 928.31 952.721 934.152 958.843 937.093 959.192 941.099 958.843 943.664 954.891 943.664 949.854 946.585 948.052 949.526 948.052 951.341 949.854 951.341 955.24 952.802 957.042 957.934 956.673 961.584 955.956 966.341 955.24 970.742 954.175 972.933 955.24 975.123 958.106 975.123 962.058 975.123 967.096 971.097 971.048 969.637 975 970.012 980.385 972.933 984.317 975.123 987.552 980.61 991.156 986.096 994.739 996.339 996.173 1003.66 996.173 1003.66 992.221 1008.04 992.589 1017.56 992.589 1022.31 990.419 1025.96 987.552 1029.26 985.033 1032.18 981.45 1034.01 983.969 1036.58 987.204 1040.61 988.269 1044.99 989.723 1050.85 991.156 1055.23 991.156 1062.91 992.221 1066.58 992.937 1069.5 996.173 1069.5 1000.12 1069.5 1005.88 1069.5 1013.41 1064.37 1018.43 1059.99 1023.47 1053.77 1027.4 1049.37 1031 1048.28 1034.59 1049.37 1038.91 1049.37 1042.86 1042.07 1035.67 1038.04 1031.35 1035.85 1028.49 1033.64 1029.92 1031.82 1034.24 1026.34 1036.39 1022.31 1036.74 1015.36 1036.74 1013.17 1042.86 1012.42 1048.25 1009.5 1055.78 1008.04 1062.23 1005.12 1067.99 1002.2 1073 999.26 1074.8 997.069 1079.1 999.635 1081.99 1001.83 1084.14 997.8 1086.29 991.583 1089.16 990.123 1093.83 990.123 1097.78 985.012 1101.01 985.012 1107.12 985.012 1114.3 980.985 1114.3 974.748 1115.74 970.367 1118.26 968.552 1120.04 970.012 1123.99 973.663 1129.74 977.689 1134.76 979.525 1139.43 985.012 1141.58 990.853 1141.58 995.234 1146.25 996.339 1148.4 999.26 1150.92 1004.02 1153.44 1009.88 1157.02 1012.8 1157.02 1018.29 1157.02 1012.42 1159.89 1012.42 1164.92 1014.26 1166.36 1011.34 1171.74 1009.5 1174.98 1010.61 1179.99 1014.63 1182.16 1012.42 1186.46 1004.02 1190.76 1001.45 1195.43 1001.45 1202.62 1003.66 1210.16 1006.94 1216.63 1009.15 1219.49 1009.15 1224.88 1001.83 1230.26 997.069 1233.5 989.392 1233.5 980.985 1230.26 975.123 1228.83 962.69 1227.75 952.989 1226.68 944.395 1218.43 943.664 1211.59 933.067 1211.96 920.258 1210.52 919.152 1204.42 910.015 1203.34 902.338 1203.71 891.365 1209.09 881.852 1213.76 867.229 1219.49 863.557 1220.21 862.097 1215.19 862.097 1210.87 865.747 1212.31 868.689 1211.96 870.149 1209.09 869.043 1205.86 866.499 1203.34 862.827 1201.19 861.367 1198.32 861.012 1194.37 859.906 1188.98 858.07 1183.6 856.61 1179.65 851.499 1178.56 847.473 1180.36 844.907 1179.99 840.526 1177.13 842.341 1171.74 844.907 1166.01 848.203 1161.69 852.584 1158.1 855.525 1154.87 856.986 1148.77 858.07 1142.3 858.446 1137.28 855.88 1131.18 854.044 1124.36 854.044 1116.09 856.61 1099.21 858.446 1074.8 861.367 1063.32 866.499 1053.63 871.234 1051.83 878.556 1051.46 881.122 1047.51 878.556 1043.92 877.451 1039.62 880.747 1034.59 885.879 1031.35 890.259 1029.2 891.72 1024.19 885.879 1017.71 880.392 1013.41 876.366 1010.18 876.741 1005.51 880.392 1001.21 883.688 999.04 887.339 996.89 890.99 995.108 888.069 989.723 885.879 987.552 878.556 987.921 875.99 982.535 872.339 975.716 869.043 975 870.149 970.331 864.287 967.444 852.959 967.096 842.717 965.662 836.5 964.229Z" stroke="#FFFFFF" stroke-width="1.14583" stroke-miterlimit="8" fill="#B4DDB8" fill-rule="evenodd"/><path d="M1133.83 868.483 1135.67 872.574 1135.67 878.384 1133.83 881.984 1129.45 881.984 1129.45 886.28 1132.56 888.08 1135.67 888.08 1140.07 886.28 1145.18 886.28 1148.11 890.596 1148.11 894.892 1149.94 900.272 1152.13 904.22 1150.67 908.884 1148.59 912.832 1152.24 915.328 1159.92 915.328 1159.92 921.792 1152.97 924.656 1153.34 932.552 1159.92 932.552 1159.92 940.448 1163.94 943.312 1167.62 945.828 1167.62 952.272 1163.94 958.736 1162.86 963.032 1163.94 969.169 1162.86 974.549 1159.56 982.097 1158.83 989.257 1159.92 996.805 1167.62 1001.45 1174.19 1001.45 1180.06 999.669 1180.06 993.532 1183.71 989.584 1188.09 989.584 1196.15 988.868 1199.44 985.268 1202.37 984.204 1202.37 988.868 1199.65 992.059 1202.2 993.491 1206.6 992.407 1212.09 988.459 1218.66 983.079 1220.88 977.351 1224.88 973.035 1230.75 970.539 1228.66 960.843 1233.42 955.115 1233.42 948.283 1251.7 948.651 1256.83 952.231 1259.4 954.747 1259.4 964.075 1264.51 966.591 1270.38 965.875 1276.64 962.275 1281.4 962.643 1285.4 964.075 1285.4 979.499 1290.16 985.963 1297.49 992.1 1301.52 1001.41 1305.54 1008.24 1309.93 1010.39 1314.33 1013.25 1311.03 1017.2 1312.87 1022.21 1312.87 1029.39 1317.25 1029.39 1326.04 1034.06 1324.2 1035.86 1324.58 1039.44 1327.5 1041.24 1305.46 1041.24 1300.7 1043.73 1294.44 1046.96 1287.85 1050.91 1284.19 1058.09 1278.33 1067.05 1278.33 1071 1283.09 1074.58 1285.17 1077.46 1285.55 1081.76 1285.55 1088.22 1281.52 1091.09 1274.78 1093.56 1268.52 1095.34 1267.06 1102.15 1264.14 1106.82 1256.81 1111.85 1251.66 1116.45 1251.3 1122.9 1255.33 1128.28 1260.82 1133.66 1261.17 1139.04 1258.98 1141.92 1249.11 1141.92 1245.08 1146.59 1240.33 1150.53 1233.38 1150.53 1222.75 1160.93 1213.61 1169.11 1212.15 1176.29 1207.39 1176.29 1202.26 1179.15 1196.42 1182.38 1193.12 1186.01 1185.06 1184.23 1179.95 1184.23 1177.38 1187.81 1176.28 1191.04 1175.55 1194.99 1173 1194.99C1172.08 1195.96 1171.55 1197.23 1171.52 1198.57 1171.95 1201.15 1172.7 1203.68 1173.73 1206.09L1176.28 1209.33 1173.73 1213.99 1168.35 1219.45 1163.94 1222.31 1158.46 1222.31 1154.07 1219.1 1149.32 1215.87 1138.69 1216.22 1131.39 1215.5 1124.06 1217.3 1117.8 1220.17 1106.1 1222.31 1096.95 1224.48 1088.9 1220.88 1083.41 1217.3 1077.92 1213.7 1075.83 1206.17 1073.27 1199.73 1067.4 1194.7 1058.26 1191.47 1051.31 1189.69 1044.72 1187.54 1036.87 1186.01 1033.22 1182.79 1026.96 1178.48 1020.7 1179.19 1015.56 1177.41 1013 1173.47 1018.13 1169.52 1019.22 1165.57 1017.03 1162.34 1015.94 1159.82 1018.86 1160.19 1020.95 1163.05 1024.25 1161.99 1026.81 1159.1 1024.98 1154.09 1018.03 1150.86 1010.7 1152.29 1006.13 1149.18 999.558 1144.52 994.069 1137.71 987.099 1135.93 983.447 1134.5 976.497 1124.45 976.497 1120.14 983.092 1119.07 986.014 1120.14 988.205 1118.7 988.205 1112.57C988.205 1112.57 990.041 1105.04 989.311 1106.1 988.58 1107.17 991.127 1099.97 991.127 1099.97L993.318 1097.92 994.069 1092.19 999.182 1089.68 1007.24 1086.08 1008.32 1082.5 1001.75 1079.26 1004.32 1076.05 1009.43 1071.02 1011.52 1063.84 1014.44 1056.31 1017 1046.53 1017.38 1041.97 1023.22 1039.82 1028.36 1039.46 1033.85 1039.46 1034.58 1035.88 1037.5 1036.59 1039.58 1040.89 1044.34 1046.53 1049.48 1048.78 1054.59 1046.53 1054.24 1039.11 1052.4 1034.44 1061.18 1027.26 1069.24 1020.8 1072.89 1015.79 1073.98 1009.65 1072.89 1003.51 1075.46 1002.43 1079.47 1002.08 1083.49 1004.13 1086.44 1007.36 1088.98 1009.41 1091.55 1010.12 1093.39 1012.99 1095.2 1016.57 1101.07 1015.13 1103.63 1012.99 1103.99 1008.32 1103.99 1004.03 1108.02 1004.03 1109.85 1001.51 1110.21 996.13 1104.36 990.75 1103.26 986.802 1106.55 985.738 1109.48 984.286 1110.21 979.274 1109.85 973.137 1108.75 969.537 1101.07 969.189 1097.41 966.673 1095.2 962.377 1096.31 956.629 1098.14 955.197 1100.23 952.681 1100.96 945.869 1104.61 944.805 1109.75 943.005 1111.83 939.057 1117.7 932.245 1117.7 919.338 1120.62 917.537 1121.71 913.589 1116.22 906.798 1113.3 900.661 1114.76 895.281 1116.95 891.701 1116.22 880.941 1124.27 880.225 1127.57 879.141 1129.76 878.057 1132.33 876.277 1132.68 872.186Z" stroke="#FFFFFF" stroke-width="1.14583" stroke-miterlimit="8" fill="#FFE699" fill-rule="evenodd"/><path d="M1170.5 1218.9 1177.07 1211.72 1181.09 1206.68 1182.92 1203.44 1180.36 1200.19 1176.71 1196.97 1176.71 1193.73 1179.63 1190.84 1180.73 1186.9 1182.92 1183.66 1189.14 1183.66 1194.24 1183.66 1197.54 1181.14 1201.93 1178.26 1207.04 1176.11 1212.15 1176.11 1215.44 1172.87 1215.44 1167.1 1220.92 1161.71 1229.7 1155.25 1234.83 1149.13 1240.66 1149.13 1249.81 1141.93 1254.55 1138.69 1260.4 1138.69 1264.43 1134.73 1266.24 1131.49 1264.43 1126.09 1258.57 1121.07 1256.03 1114.59 1256.38 1109.91 1262.97 1105.95 1269.18 1102.73 1272.47 1091.57 1283.79 1088.33 1288.54 1086.54 1288.54 1076.82 1288.54 1068.9 1285.25 1064.59 1281.96 1063.15 1284.9 1057.76 1288.54 1053.45 1292.19 1048.4 1298.78 1043.38 1304.99 1040.4 1311.58 1040.4 1318.14 1040.4 1328.38 1040.4 1332.78 1038.7 1335.32 1035.09 1337.53 1031.5 1340.8 1031.5 1344.1 1035.81 1344.1 1040.4 1346.66 1043.73 1349.95 1045.16 1352.87 1043.73 1352.87 1040.4 1355.06 1037.98 1357.98 1038.33 1357.98 1043.38 1356.52 1046.97 1356.16 1052.36 1357.98 1055.95 1361.65 1060.28 1361.65 1064.24 1358.35 1066.74 1361.65 1068.9 1367.86 1071.79 1372.61 1072.14 1377.72 1069.99 1383.58 1065.68 1390.89 1064.96 1398.56 1064.59 1402.94 1063.15 1405.88 1057.39 1408.07 1056.67 1422.33 1058.85 1432.54 1059.91 1442.77 1061.35 1449.72 1065.68 1460.68 1071.42 1470.19 1078.25 1478.61 1084.02 1486.63 1090.5 1495.78 1094.44 1505.29 1094.81 1511.85 1095.16 1517.34 1095.16 1521.74 1093 1526.11 1089.04 1528.68 1087.26 1528.68 1091.57 1528.68 1095.16 1527.22 1098.4 1527.22 1101.29 1530.86 1102.73 1535.62 1103.08 1537.45 1104.88 1537.45 1107.75 1542.2 1106.69 1545.85 1104.88 1549.5 1104.88 1549.5 1108.84 1546.23 1111 1542.56 1113.15 1538.91 1115.3 1538.91 1118.2 1540.37 1122.87 1537.45 1125.21 1534.89 1128.62 1533.43 1132.58 1529.03 1132.58 1526.11 1134.01 1523.92 1136.54 1519.53 1137.97 1512.23 1136.54 1508.94 1137.97 1506.02 1139.78 1498.7 1139.41 1493.95 1131.49 1487.74 1125.21 1481.53 1121.44 1474.94 1117.11 1469.1 1108.47 1459.22 1097.33 1451.55 1087.98 1446.8 1085.09 1443.15 1084.74 1443.5 1078.25 1436.21 1078.25 1431.46 1078.25 1426.33 1074.29 1420.85 1074.29 1421.95 1078.25 1418.3 1078.25 1412.82 1078.25 1404.77 1078.25 1397.46 1078.25 1391.62 1078.25 1386.14 1080.43 1379.55 1084.02 1371.51 1087.61 1364.57 1090.5 1360 1095.53 1356.89 1100.55 1353.25 1103.45 1352.87 1107.75 1352.14 1114.59 1354.71 1116.39 1360 1116.39 1360 1119.26 1360 1123.59 1362 1125.21 1365.29 1125.21 1364.57 1130.42 1361.65 1137.97 1360 1145.89 1358.35 1152.72 1357.25 1159.55 1356.16 1165.67 1356.16 1170.35 1357.98 1173.94 1356.89 1177.89 1354.33 1182.57 1350.68 1187.25 1346.66 1190.84 1343.74 1194.08 1340.45 1194.8 1336.8 1194.45 1325.11 1193.73 1317.41 1191.93 1311.2 1189.4 1307.55 1192.3 1304.64 1198.04 1298.05 1195.89 1292.19 1192.3 1289.27 1190.49 1282.71 1190.49 1276.85 1191.21 1270.99 1196.6 1264.43 1203.09 1259.67 1210.99 1259.3 1213.16 1253.46 1218.9 1247.6 1218.9 1241.04 1221.06 1229.34 1225.74 1217.28 1231.5 1201.93 1231.5 1184.01 1231.5 1178.53 1227.54 1172.69 1221.78 1170.5 1218.9Z" stroke="#FFFFFF" stroke-width="6.875" stroke-miterlimit="8" fill="#B4DDB8" fill-rule="evenodd"/><path d="M1328.67 1037.44 1328.67 1033.13 1323.54 1029.16 1317.32 1024.83 1315.5 1020.15 1319.88 1018.37 1326.84 1015.13 1331.97 1013.69 1338.19 1011.88 1341.85 1014.76 1341.85 1016.56 1345.5 1015.84 1348.8 1014.76 1351.72 1017.65 1356.13 1019.44 1359.97 1019.09 1359.97 1016.93 1366.73 1016.56 1373.33 1016.21 1377.71 1014.04 1377.71 1011.88 1374.06 1007.57 1374.79 1002.53 1381.39 1002.53 1386.5 1005.77 1392.72 1009.01 1398.59 1013.32 1404.44 1019.99 1408.47 1024.12 1416.15 1024.12 1422.01 1018.37 1429.34 1018 1434.46 1017.28 1434.46 1010.45 1440.32 1010.82 1445.81 1010.08 1447.63 1011.88 1452.04 1012.25 1454.96 1009.36 1454.96 1005.77 1454.96 1002.53 1461.91 1000.37 1470.7 996.409 1479.11 992.1 1487.9 987.421 1493.39 984.896 1497.05 984.896 1502.18 987.769 1502.18 991.73 1498.53 998.564 1495.96 1002.53 1494.5 1006.86 1494.5 1011.17 1495.23 1016.93 1495.96 1019.81 1487.9 1019.44 1487.9 1025.2 1488.28 1032.04 1490.09 1035.63 1493.39 1037.44 1497.42 1038.87 1502.18 1034.19 1504.02 1032.39 1509.13 1032.76 1510.6 1035.63 1510.6 1038.87 1513.52 1042.48 1516.46 1044.64 1520.85 1044.64 1524.5 1044.64 1524.5 1037.44 1531.1 1037.44 1534.02 1037.44 1537.69 1032.76 1539.16 1026.99 1540.97 1024.12 1546.48 1022.33 1551.97 1022.68 1549.76 1014.76 1558.93 1014.76 1562.96 1014.76 1565.88 1011.54 1569.18 1008.29 1573.56 1010.82 1576.13 1014.76 1578.32 1016.21 1581.62 1017.28 1585.27 1014.76 1583.81 1010.45 1581.97 1005.77 1581.24 1001.09 1580.16 996.409 1585.27 997.846 1589.66 997.846 1593.33 996.409 1596.25 990.663 1596.25 987.051 1596.25 984.896 1599.18 988.139 1601.75 991.381 1605.4 988.488 1606.88 984.896 1603.58 979.499 1598.82 973.013 1596.63 969.422 1602.48 969.422 1609.07 967.267 1612.73 961.5 1620.05 964.743 1627.74 967.985 1632.5 970.14 1642.75 969.073 1648.59 969.073 1646.05 972.664 1640.56 974.47 1639.07 976.256 1640.56 978.062 1645.67 978.431 1653.35 979.868 1653.35 983.09 1656.65 987.421 1661.06 989.924 1663.25 995.322 1664.71 1005.05 1667.28 1014.76 1670.2 1026.29 1672.77 1032.76 1681.91 1041.74 1692.16 1052.19 1694.36 1059.74 1695.82 1066.95 1699.49 1077.37 1701.68 1081.33 1699.85 1086.01 1698.74 1091.41 1698.39 1097.9 1698.74 1105.45 1699.12 1117.68 1701.68 1131.72 1701.68 1141.43 1703.5 1148.63 1703.5 1152.59 1702.04 1160.86 1700.58 1168.41 1698.01 1182.82 1696.55 1194.33 1694 1215.21 1693.63 1227.44 1690.7 1234.99 1684.11 1245.44 1674.59 1257.3 1668.01 1264.13 1663.98 1261.63 1660.68 1261.26 1658.84 1264.13 1655.57 1265.94 1652.27 1262.35 1648.24 1257.67 1643.48 1257.67 1638.72 1262.7 1638.72 1269.18 1637.99 1277.1 1633.96 1281.04 1629.57 1282.5 1632.12 1278.54 1632.85 1273.86 1632.12 1267.03 1628.84 1259.45 1625.17 1252.62 1614.19 1244.7 1606.51 1237.51 1605.77 1234.27 1612 1231.75 1615.29 1226.35 1616.38 1221.32 1616.03 1218.08 1642.02 1218.08 1641.64 1213.4 1637.61 1208.72 1635.8 1205.48 1638.36 1196.84 1639.45 1191.09 1640.56 1187.5 1637.99 1185.32 1636.88 1183.54 1640.56 1183.54 1641.29 1181.01 1637.26 1177.42 1634.33 1174.53 1633.23 1167.69 1632.85 1161.23 1632.5 1154.74 1632.85 1151.15 1636.15 1148.63 1635.42 1142.14 1628.09 1135.68 1625.17 1133.15 1625.55 1127.76 1617.86 1128.11 1612.73 1128.84 1608.34 1135.68 1601.75 1142.86 1598.09 1146.1 1595.9 1152.94 1595.9 1158.34 1589.66 1159.05 1581.24 1162.3 1572.83 1168.06 1569.53 1168.06 1564.04 1162.3 1560.74 1156.18 1555.98 1149.72 1549.76 1146.82 1542.08 1145.76 1538.05 1141.43 1540.24 1134.96 1545.38 1130.63 1545 1124.88 1544.65 1122.01 1549.76 1119.12 1553.06 1117.68 1553.44 1111.91 1551.97 1107.97 1547.57 1106.52 1542.08 1107.97 1540.62 1105.8 1535.86 1105.8 1532.2 1105.08 1533.67 1089.26 1529.99 1087.45 1524.15 1091.78 1515 1097.18 1504.37 1096.46 1496.69 1095 1491.56 1093.57 1478.76 1083.49 1467.78 1075.94 1453.12 1068.01 1443.6 1063.33 1437.76 1062.27 1426.77 1060.83 1410.66 1058.31 1401.16 1057.59 1398.21 1066.58 1384.31 1066.95 1372.95 1073.78 1368.57 1073.78 1364.92 1071.26 1368.19 1069.82 1366.38 1065.86 1364.54 1060.83 1359.97 1057.22 1359.97 1052.91 1359.97 1046.34 1359.97 1041.74 1354.67 1041.03 1349.91 1040.31 1346.23 1039.96 1345.15 1037.44 1343.31 1033.47 1339.28 1033.47 1333.06 1035.28 1328.67 1037.44Z" stroke="#FFFFFF" stroke-width="1.14583" stroke-miterlimit="8" fill="#B4DDB8" fill-rule="evenodd"/><path d="M299.497 897.483 307.83 899.193 316.164 900.738 323.643 900.738 327.976 899.111 331.914 899.111 333.997 900.738 338.309 902.696 340.685 906.57 344.226 913.596 349.08 922.147 354.58 933.459 357.33 937.724 367.309 941.227 370.726 941.227 370.726 963.893C371.62 965.212 372.839 966.281 374.268 967.004 376.291 968.074 378.26 969.242 380.164 970.507L386.414 973.083 393.101 977.513 397.435 977.513 404.122 973.083 412.455 967.767 423.08 961.894 431.414 954.538 439.289 951.035 441.372 947.532 441.372 937.519 450.018 927.669 460.268 917.367 461.83 914.359 461.83 906.549 468.914 913.184 470.893 914.729 475.226 914.359 479.976 912.793 486.226 912.793 489.768 915.512 491.851 919.366 491.851 925.65 502.476 925.65 509.164 935.767 513.101 937.436 522.934 931.481 537.518 940.444 539.476 942.773 549.33 941.99 549.33 950.232 553.268 952.952 553.268 957.629 557.976 961.874 571.372 975.164 573.726 981.345 573.726 985.611 576.101 988.722 582.351 991.05 584.497 993.853 584.497 1001.25 578.247 1001.25 566.434 998.509 560.184 997.747 545.997 995.006 536.955 992.678 533.018 990.618 529.476 992.184 529.08 996.469 527.101 998.035 522.393 993.358 517.268 989.855 509.789 988.681 497.185 985.961 484.143 979.429 475.497 975.164 470.768 973.103 467.226 974.814 464.476 977.925 465.643 982.994 462.893 986.105 461.705 989.608 465.247 993.502 469.185 997.005 469.185 1001.29 462.935 997.397 458.33 991.792 450.289 991.401 445.955 994.141 442.018 998.406 444.393 1003.31 442.018 1006.59 423.122 1006.59 423.122 1013.43 424.705 1015.16 423.518 1022.56 430.205 1022.56 429.83 1028.74 430.997 1031.87 435.726 1031.87 435.726 1034.59 429.476 1038.48 422.393 1038.48 415.685 1036.53 412.143 1035.37 411.351 1028.37 407.414 1027.97 402.705 1031.09 397.185 1030.3 396.393 1025.23 393.643 1021.34 389.705 1017.05 393.247 1013.39 392.83 1008.28 390.872 1003.43 384.622 1001.66 379.914 1003.43 378.33 1005.49 374.789 1006.26 373.601 999.251 374.393 994.574 369.268 991.462 362.58 990.68 358.247 989.917 353.914 993.028 346.435 993.42 344.872 986.023 343.685 980.954 338.559 975.885 336.601 975.123 335.018 973.062 333.455 968.076 329.914 963.955 331.08 960.06 335.018 959.277 335.018 955.774 331.872 953.034 322.809 946.028 322.039 937.457 316.122 935.911 311.018 935.911 306.685 934.737 307.08 928.906 306.685 925.403 307.455 922.271 309.039 919.51 305.018 915.554 303.08 910.876 303.08 906.59 299.497 902.717Z" stroke="#FFFFFF" stroke-width="1.14583" stroke-miterlimit="8" fill="#B4DDB8" fill-rule="evenodd"/><text fill="#00507C" font-family="Arial,Arial_MSFontService,sans-serif" font-weight="700" font-size="28" text-decoration="underline" transform="matrix(1 0 0 1 1554.15 1067)"></text><text fill="#00507C" font-family="Arial,Arial_MSFontService,sans-serif" font-weight="700" font-size="28" transform="matrix(1 0 0 1 1583.64 1100)">7/3</text><text fill="#00507C" font-family="Arial,Arial_MSFontService,sans-serif" font-weight="700" font-size="28" text-decoration="underline" transform="matrix(1 0 0 1 1282.59 1128)"></text><text fill="#00507C" font-family="Arial,Arial_MSFontService,sans-serif" font-weight="700" font-size="28" transform="matrix(1 0 0 1 1292.05 1161)">7/3</text><text fill="#00507C" font-family="Arial,Arial_MSFontService,sans-serif" font-weight="700" font-size="28" text-decoration="underline" transform="matrix(1 0 0 1 1096.54 1078)"></text><text fill="#00507C" font-family="Arial,Arial_MSFontService,sans-serif" font-weight="700" font-size="28" text-decoration="underline" transform="matrix(1 0 0 1 1116.59 1078)">-</text><text fill="#00507C" font-family="Arial,Arial_MSFontService,sans-serif" font-weight="700" font-size="28" text-decoration="underline" transform="matrix(1 0 0 1 1125.76 1078)"></text><text fill="#00507C" font-family="Arial,Arial_MSFontService,sans-serif" font-weight="700" font-size="28" transform="matrix(1 0 0 1 1122.02 1111)">0/2</text><text fill="#00507C" font-family="Arial,Arial_MSFontService,sans-serif" font-weight="700" font-size="28" text-decoration="underline" transform="matrix(1 0 0 1 893.76 1074)"></text><text fill="#00507C" font-family="Arial,Arial_MSFontService,sans-serif" font-weight="700" font-size="28" transform="matrix(1 0 0 1 912.094 1107)">1/0</text><text fill="#00507C" font-family="Arial,Arial_MSFontService,sans-serif" font-weight="700" font-size="28" text-decoration="underline" transform="matrix(1 0 0 1 720.5 1022)"></text><text fill="#00507C" font-family="Arial,Arial_MSFontService,sans-serif" font-weight="700" font-size="28" text-decoration="underline" transform="matrix(1 0 0 1 737.687 1022)">-</text><text fill="#00507C" font-family="Arial,Arial_MSFontService,sans-serif" font-weight="700" font-size="28" text-decoration="underline" transform="matrix(1 0 0 1 746.854 1022)"></text><text fill="#00507C" font-family="Arial,Arial_MSFontService,sans-serif" font-weight="700" font-size="28" transform="matrix(1 0 0 1 744.562 1055)">3/6</text><text fill="#00507C" font-family="Arial,Arial_MSFontService,sans-serif" font-weight="700" font-size="28" text-decoration="underline" transform="matrix(1 0 0 1 605.901 859)"></text><text fill="#00507C" font-family="Arial,Arial_MSFontService,sans-serif" font-weight="700" font-size="28" transform="matrix(1 0 0 1 634.822 892)">0/1</text><text fill="#00507C" font-family="Arial,Arial_MSFontService,sans-serif" font-weight="700" font-size="28" text-decoration="underline" transform="matrix(1 0 0 1 468.423 690)"></text><text fill="#00507C" font-family="Arial,Arial_MSFontService,sans-serif" font-weight="700" font-size="28" transform="matrix(1 0 0 1 478.438 723)">3/3</text><text fill="#00507C" font-family="Arial,Arial_MSFontService,sans-serif" font-weight="700" font-size="28" text-decoration="underline" transform="matrix(1 0 0 1 318.349 791)"></text><text fill="#00507C" font-family="Arial,Arial_MSFontService,sans-serif" font-weight="700" font-size="28" transform="matrix(1 0 0 1 344.978 824)">3/4</text><text fill="#00507C" font-family="Arial,Arial_MSFontService,sans-serif" font-weight="700" font-size="28" text-decoration="underline" transform="matrix(1 0 0 1 452.966 967)"></text><text fill="#00507C" font-family="Arial,Arial_MSFontService,sans-serif" font-weight="700" font-size="28" text-decoration="underline" transform="matrix(1 0 0 1 481.612 967)">-</text><text fill="#00507C" font-family="Arial,Arial_MSFontService,sans-serif" font-weight="700" font-size="28" text-decoration="underline" transform="matrix(1 0 0 1 490.779 967)"></text><text fill="#00507C" font-family="Arial,Arial_MSFontService,sans-serif" font-weight="700" font-size="28" transform="matrix(1 0 0 1 470.429 1000)">4/2</text><text fill="#00507C" font-family="Arial,Arial_MSFontService,sans-serif" font-weight="700" font-size="28" text-decoration="underline" transform="matrix(1 0 0 1 363.188 907)"></text><text fill="#00507C" font-family="Arial,Arial_MSFontService,sans-serif" font-weight="700" font-size="28" transform="matrix(1 0 0 1 376.067 940)">1/0</text><text fill="#00507C" font-family="Arial,Arial_MSFontService,sans-serif" font-weight="700" font-size="28" text-decoration="underline" transform="matrix(1 0 0 1 182.278 893)"></text><text fill="#00507C" font-family="Arial,Arial_MSFontService,sans-serif" font-weight="700" font-size="28" transform="matrix(1 0 0 1 202.33 926)">0/1</text><text fill="#00507C" font-family="Arial,Arial_MSFontService,sans-serif" font-weight="700" font-size="28" text-decoration="underline" transform="matrix(1 0 0 1 41.1222 939)"></text><text fill="#00507C" font-family="Arial,Arial_MSFontService,sans-serif" font-weight="700" font-size="28" text-decoration="underline" transform="matrix(1 0 0 1 61.1743 939)">-</text><text fill="#00507C" font-family="Arial,Arial_MSFontService,sans-serif" font-weight="700" font-size="28" text-decoration="underline" transform="matrix(1 0 0 1 70.341 939)"></text><text fill="#00507C" font-family="Arial,Arial_MSFontService,sans-serif" font-weight="700" font-size="28" transform="matrix(1 0 0 1 64.9097 972)">1/1</text><text fill="#00507C" font-family="Arial,Arial_MSFontService,sans-serif" font-weight="700" font-size="28" text-decoration="underline" transform="matrix(1 0 0 1 115.491 796)"></text><text fill="#00507C" font-family="Arial,Arial_MSFontService,sans-serif" font-weight="700" font-size="28" text-decoration="underline" transform="matrix(1 0 0 1 144.137 796)">-</text><text fill="#00507C" font-family="Arial,Arial_MSFontService,sans-serif" font-weight="700" font-size="28" text-decoration="underline" transform="matrix(1 0 0 1 153.303 796)"></text><text fill="#00507C" font-family="Arial,Arial_MSFontService,sans-serif" font-weight="700" font-size="28" transform="matrix(1 0 0 1 154.151 829)">0/1</text><text fill="#00507C" font-family="Arial,Arial_MSFontService,sans-serif" font-weight="700" font-size="28" text-decoration="underline" transform="matrix(1 0 0 1 149.263 702)"></text><text fill="#00507C" font-family="Arial,Arial_MSFontService,sans-serif" font-weight="700" font-size="28" transform="matrix(1 0 0 1 170.46 735)">3/4</text><text fill="#00507C" font-family="Arial,Arial_MSFontService,sans-serif" font-weight="700" font-size="28" text-decoration="underline" transform="matrix(1 0 0 1 243.022 606)"></text><text fill="#00507C" font-family="Arial,Arial_MSFontService,sans-serif" font-weight="700" font-size="28" transform="matrix(1 0 0 1 251.043 639)">4/1</text><text fill="#00507C" font-family="Arial,Arial_MSFontService,sans-serif" font-weight="700" font-size="28" text-decoration="underline" transform="matrix(1 0 0 1 54.3798 536)"></text><text fill="#00507C" font-family="Arial,Arial_MSFontService,sans-serif" font-weight="700" font-size="28" transform="matrix(1 0 0 1 70.9944 569)">0/0</text></g></svg>